<?xml version="1.0" encoding="UTF-8" standalone="no"?>
<svg
   version="1.1"
   width="41.069435mm"
   height="44.681877mm"
   viewBox="0 0 41.069435 44.681877"
   id="svg435"
   sodipodi:docname="wheatstone.svg"
   xmlns:inkscape="http://www.inkscape.org/namespaces/inkscape"
   xmlns:sodipodi="http://sodipodi.sourceforge.net/DTD/sodipodi-0.dtd"
   xmlns="http://www.w3.org/2000/svg"
   xmlns:svg="http://www.w3.org/2000/svg">
  <defs
     id="defs435" />
  <sodipodi:namedview
     id="namedview435"
     pagecolor="#ffffff"
     bordercolor="#000000"
     borderopacity="0.25"
     inkscape:showpageshadow="2"
     inkscape:pageopacity="0.0"
     inkscape:pagecheckerboard="0"
     inkscape:deskcolor="#d1d1d1"
     inkscape:document-units="mm" />
  <title
     id="title1">SVG Image created as wheatstone.svg date 2025/11/18 18:22:45 </title>
  <desc
     id="desc1">Image generated by Eeschema-SVG </desc>
  <g
     style="fill:#000000;fill-opacity:1;stroke:#000000;stroke-linecap:round;stroke-linejoin:round;stroke-opacity:1"
     id="g1"
     transform="translate(-118.5418,-64.0033)">
    <path
       style="fill:none;stroke:#840000;stroke-width:0.1524;stroke-linecap:round;stroke-linejoin:round;stroke-opacity:1"
       d="m 132.08,102.87 v 1.27 h 1.27 l -1.27,1.27 -1.27,-1.27 h 1.27"
       id="path1" />
  </g>
  <g
     style="fill:none;stroke:#840000;stroke-width:0.1524;stroke-linecap:round;stroke-linejoin:round;stroke-opacity:1"
     id="g2"
     transform="translate(-118.5418,-64.0033)">
    <path
       d="m 132.08,102.87 v 0"
       id="path2" />
  </g>
  <g
     style="fill:none;stroke:#006464;stroke-width:0.1524;stroke-linecap:round;stroke-linejoin:round;stroke-opacity:1"
     id="g38"
     transform="translate(-118.5418,-64.0033)">
    <text
       x="132.08"
       y="108.585"
       textLength="4.0737"
       font-size="1.6933px"
       lengthAdjust="spacingAndGlyphs"
       text-anchor="middle"
       opacity="0"
       stroke-opacity="0"
       id="text2">GND</text>
    <g
       class="stroked-text"
       id="g33">
      <desc
         id="desc2">GND</desc>
      <path
         d="m 131.1124,107.32 -0.121,-0.0605"
         id="path3" />
      <path
         d="M 130.9914,107.2595 H 130.81"
         id="path4" />
      <path
         d="m 130.81,107.2595 -0.1814,0.0605"
         id="path5" />
      <path
         d="m 130.6286,107.32 -0.121,0.121"
         id="path6" />
      <path
         d="m 130.5076,107.441 -0.0605,0.1209"
         id="path7" />
      <path
         d="m 130.4471,107.5619 -0.0604,0.2419"
         id="path8" />
      <path
         d="m 130.3867,107.8038 v 0.1814"
         id="path9" />
      <path
         d="m 130.3867,107.9852 0.0604,0.2419"
         id="path10" />
      <path
         d="m 130.4471,108.2271 0.0605,0.121"
         id="path11" />
      <path
         d="m 130.5076,108.3481 0.121,0.121"
         id="path12" />
      <path
         d="m 130.6286,108.4691 0.1814,0.0604"
         id="path13" />
      <path
         d="m 130.81,108.5295 h 0.1209"
         id="path14" />
      <path
         d="m 130.9309,108.5295 0.1815,-0.0604"
         id="path15" />
      <path
         d="m 131.1124,108.4691 0.0604,-0.0605"
         id="path16" />
      <path
         d="m 131.1728,108.4086 v -0.4234"
         id="path17" />
      <path
         d="m 131.1728,107.9852 h -0.2419"
         id="path18" />
      <path
         d="m 131.7171,108.5295 v -1.27"
         id="path19" />
      <path
         d="m 131.7171,107.2595 0.7257,1.27"
         id="path20" />
      <path
         d="m 132.4428,108.5295 v -1.27"
         id="path21" />
      <path
         d="m 133.0476,108.5295 v -1.27"
         id="path22" />
      <path
         d="M 133.0476,107.2595 H 133.35"
         id="path23" />
      <path
         d="m 133.35,107.2595 0.1814,0.0605"
         id="path24" />
      <path
         d="m 133.5314,107.32 0.121,0.121"
         id="path25" />
      <path
         d="m 133.6524,107.441 0.0605,0.1209"
         id="path26" />
      <path
         d="m 133.7129,107.5619 0.0604,0.2419"
         id="path27" />
      <path
         d="m 133.7733,107.8038 v 0.1814"
         id="path28" />
      <path
         d="m 133.7733,107.9852 -0.0604,0.2419"
         id="path29" />
      <path
         d="m 133.7129,108.2271 -0.0605,0.121"
         id="path30" />
      <path
         d="m 133.6524,108.3481 -0.121,0.121"
         id="path31" />
      <path
         d="m 133.5314,108.4691 -0.1814,0.0604"
         id="path32" />
      <path
         d="m 133.35,108.5295 h -0.3024"
         id="path33" />
    </g>
    <path
       style="fill:none;stroke:#840000;stroke-width:0.1524;stroke-linecap:round;stroke-linejoin:round;stroke-opacity:1"
       d="M 143.51,76.454 V 76.2"
       id="path34" />
    <path
       style="fill:none;stroke:#840000;stroke-width:0.1524;stroke-linecap:round;stroke-linejoin:round;stroke-opacity:1"
       d="m 143.51,76.454 1.016,0.381 -1.016,0.381 -1.016,0.381 1.016,0.381"
       id="path35" />
    <path
       style="fill:none;stroke:#840000;stroke-width:0.1524;stroke-linecap:round;stroke-linejoin:round;stroke-opacity:1"
       d="m 143.51,77.978 1.016,0.381 -1.016,0.381 -1.016,0.381 1.016,0.381"
       id="path36" />
    <path
       style="fill:none;stroke:#840000;stroke-width:0.1524;stroke-linecap:round;stroke-linejoin:round;stroke-opacity:1"
       d="m 143.51,79.502 1.016,0.381 -1.016,0.381 -1.016,0.381 1.016,0.381"
       id="path37" />
    <path
       style="fill:none;stroke:#840000;stroke-width:0.1524;stroke-linecap:round;stroke-linejoin:round;stroke-opacity:1"
       d="M 143.51,81.026 V 81.28"
       id="path38" />
  </g>
  <g
     style="fill:none;stroke:#840000;stroke-width:0.1524;stroke-linecap:round;stroke-linejoin:round;stroke-opacity:1"
     id="g40"
     transform="translate(-118.5418,-64.0033)">
    <path
       d="M 143.51,76.2 V 74.93"
       id="path39" />
    <path
       d="m 143.51,81.28 v 1.27"
       id="path40" />
  </g>
  <g
     style="fill:none;stroke:#006464;stroke-width:0.1524;stroke-linecap:round;stroke-linejoin:round;stroke-opacity:1"
     id="g91"
     transform="translate(-118.5418,-64.0033)">
    <text
       x="147.40089"
       y="78.104897"
       textLength="2.6826999"
       font-size="1.6933px"
       lengthAdjust="spacingAndGlyphs"
       text-anchor="middle"
       opacity="0"
       stroke-opacity="0"
       id="text40">R3</text>
    <g
       class="stroked-text"
       id="g64">
      <desc
         id="desc40">R3</desc>
      <path
         d="m 147.1892,78.0494 -0.4233,-0.6047"
         id="path41" />
      <path
         d="m 146.4635,78.0494 v -1.27"
         id="path42" />
      <path
         d="m 146.4635,76.7794 h 0.4838"
         id="path43" />
      <path
         d="m 146.9473,76.7794 0.121,0.0605"
         id="path44" />
      <path
         d="m 147.0683,76.8399 0.0605,0.0605"
         id="path45" />
      <path
         d="m 147.1288,76.9004 0.0604,0.1209"
         id="path46" />
      <path
         d="m 147.1892,77.0213 v 0.1815"
         id="path47" />
      <path
         d="m 147.1892,77.2028 -0.0604,0.1209"
         id="path48" />
      <path
         d="m 147.1288,77.3237 -0.0605,0.0605"
         id="path49" />
      <path
         d="m 147.0683,77.3842 -0.121,0.0605"
         id="path50" />
      <path
         d="m 146.9473,77.4447 h -0.4838"
         id="path51" />
      <path
         d="m 147.6126,76.7794 h 0.7862"
         id="path52" />
      <path
         d="m 148.3988,76.7794 -0.4234,0.4838"
         id="path53" />
      <path
         d="m 147.9754,77.2632 h 0.1815"
         id="path54" />
      <path
         d="m 148.1569,77.2632 0.1209,0.0605"
         id="path55" />
      <path
         d="m 148.2778,77.3237 0.0605,0.0605"
         id="path56" />
      <path
         d="m 148.3383,77.3842 0.0605,0.1209"
         id="path57" />
      <path
         d="m 148.3988,77.5051 v 0.3024"
         id="path58" />
      <path
         d="m 148.3988,77.8075 -0.0605,0.121"
         id="path59" />
      <path
         d="m 148.3383,77.9285 -0.0605,0.0605"
         id="path60" />
      <path
         d="m 148.2778,77.989 -0.1209,0.0604"
         id="path61" />
      <path
         d="M 148.1569,78.0494 H 147.794"
         id="path62" />
      <path
         d="M 147.794,78.0494 147.6731,77.989"
         id="path63" />
      <path
         d="m 147.6731,77.989 -0.0605,-0.0605"
         id="path64" />
    </g>
    <text
       x="148.1871"
       y="80.644897"
       textLength="4.2550998"
       font-size="1.6933px"
       lengthAdjust="spacingAndGlyphs"
       text-anchor="middle"
       opacity="0"
       stroke-opacity="0"
       id="text64">2.7k</text>
    <g
       class="stroked-text"
       id="g84">
      <desc
         id="desc64">2.7k</desc>
      <path
         d="m 146.4031,79.4404 0.0604,-0.0605"
         id="path65" />
      <path
         d="m 146.4635,79.3799 0.121,-0.0605"
         id="path66" />
      <path
         d="m 146.5845,79.3194 h 0.3024"
         id="path67" />
      <path
         d="m 146.8869,79.3194 0.1209,0.0605"
         id="path68" />
      <path
         d="m 147.0078,79.3799 0.0605,0.0605"
         id="path69" />
      <path
         d="m 147.0683,79.4404 0.0605,0.1209"
         id="path70" />
      <path
         d="m 147.1288,79.5613 v 0.121"
         id="path71" />
      <path
         d="m 147.1288,79.6823 -0.0605,0.1814"
         id="path72" />
      <path
         d="m 147.0683,79.8637 -0.7257,0.7257"
         id="path73" />
      <path
         d="m 146.3426,80.5894 h 0.7862"
         id="path74" />
      <path
         d="m 147.673,80.4685 0.0605,0.0605"
         id="path75" />
      <path
         d="m 147.7335,80.529 -0.0605,0.0604"
         id="path76" />
      <path
         d="M 147.673,80.5894 147.6126,80.529"
         id="path77" />
      <path
         d="m 147.6126,80.529 0.0604,-0.0605"
         id="path78" />
      <path
         d="m 147.673,80.4685 v 0.1209"
         id="path79" />
      <path
         d="m 148.1569,79.3194 h 0.8466"
         id="path80" />
      <path
         d="m 149.0035,79.3194 -0.5442,1.27"
         id="path81" />
      <path
         d="m 149.4873,80.5894 v -1.27"
         id="path82" />
      <path
         d="m 149.6083,80.1056 0.3628,0.4838"
         id="path83" />
      <path
         d="m 149.9711,79.7428 -0.4838,0.4838"
         id="path84" />
    </g>
    <path
       style="fill:none;stroke:#840000;stroke-width:0.1524;stroke-linecap:round;stroke-linejoin:round;stroke-opacity:1"
       d="m 141.605,88.9 v 1.27 l 3.81,2.54"
       id="path85" />
    <path
       style="fill:none;stroke:#840000;stroke-width:0.1524;stroke-linecap:round;stroke-linejoin:round;stroke-opacity:1"
       d="M 143.51,89.154 V 88.9"
       id="path86" />
    <path
       style="fill:none;stroke:#840000;stroke-width:0.1524;stroke-linecap:round;stroke-linejoin:round;stroke-opacity:1"
       d="m 143.51,89.154 1.016,0.381 -1.016,0.381 -1.016,0.381 1.016,0.381"
       id="path87" />
    <path
       style="fill:none;stroke:#840000;stroke-width:0.1524;stroke-linecap:round;stroke-linejoin:round;stroke-opacity:1"
       d="m 143.51,90.678 1.016,0.381 -1.016,0.381 -1.016,0.381 1.016,0.381"
       id="path88" />
    <path
       style="fill:none;stroke:#840000;stroke-width:0.1524;stroke-linecap:round;stroke-linejoin:round;stroke-opacity:1"
       d="m 143.51,92.202 1.016,0.381 -1.016,0.381 -1.016,0.381 1.016,0.381"
       id="path89" />
    <path
       style="fill:none;stroke:#840000;stroke-width:0.1524;stroke-linecap:round;stroke-linejoin:round;stroke-opacity:1"
       d="M 143.51,93.726 V 93.98"
       id="path90" />
    <path
       style="fill:none;stroke:#840000;stroke-width:0.1524;stroke-linecap:round;stroke-linejoin:round;stroke-opacity:1"
       d="m 145.415,92.71 v 1.27"
       id="path91" />
  </g>
  <g
     style="fill:none;stroke:#840000;stroke-width:0.1524;stroke-linecap:round;stroke-linejoin:round;stroke-opacity:1"
     id="g93"
     transform="translate(-118.5418,-64.0033)">
    <path
       d="M 143.51,88.9 V 87.63"
       id="path92" />
    <path
       d="m 143.51,93.98 v 1.27"
       id="path93" />
  </g>
  <g
     style="fill:none;stroke:#006464;stroke-width:0.1524;stroke-linecap:round;stroke-linejoin:round;stroke-opacity:1"
     id="g233"
     transform="translate(-118.5418,-64.0033)">
    <text
       x="147.91499"
       y="90.804901"
       textLength="3.7107999"
       font-size="1.6933px"
       lengthAdjust="spacingAndGlyphs"
       text-anchor="middle"
       opacity="0"
       stroke-opacity="0"
       id="text93">TH1</text>
    <g
       class="stroked-text"
       id="g103">
      <desc
         id="desc93">TH1</desc>
      <path
         d="m 146.2821,89.4794 h 0.7257"
         id="path94" />
      <path
         d="m 146.645,90.7494 v -1.27"
         id="path95" />
      <path
         d="m 147.4311,90.7494 v -1.27"
         id="path96" />
      <path
         d="m 147.4311,90.0842 h 0.7257"
         id="path97" />
      <path
         d="m 148.1568,90.7494 v -1.27"
         id="path98" />
      <path
         d="m 149.4269,90.7494 h -0.7257"
         id="path99" />
      <path
         d="m 149.064,90.7494 v -1.27"
         id="path100" />
      <path
         d="m 149.064,89.4794 -0.1209,0.1815"
         id="path101" />
      <path
         d="m 148.9431,89.6609 -0.121,0.1209"
         id="path102" />
      <path
         d="m 148.8221,89.7818 -0.1209,0.0605"
         id="path103" />
    </g>
    <text
       x="152.8739"
       y="93.344902"
       textLength="13.6287"
       font-size="1.6933px"
       lengthAdjust="spacingAndGlyphs"
       text-anchor="middle"
       opacity="0"
       stroke-opacity="0"
       id="text103">Omega 44033</text>
    <g
       class="stroked-text"
       id="g227">
      <desc
         id="desc103">Omega 44033</desc>
      <path
         d="m 146.7054,92.0194 h 0.2419"
         id="path104" />
      <path
         d="m 146.9473,92.0194 0.121,0.0605"
         id="path105" />
      <path
         d="m 147.0683,92.0799 0.1209,0.121"
         id="path106" />
      <path
         d="m 147.1892,92.2009 0.0605,0.2419"
         id="path107" />
      <path
         d="m 147.2497,92.4428 v 0.4233"
         id="path108" />
      <path
         d="m 147.2497,92.8661 -0.0605,0.2419"
         id="path109" />
      <path
         d="m 147.1892,93.108 -0.1209,0.121"
         id="path110" />
      <path
         d="m 147.0683,93.229 -0.121,0.0604"
         id="path111" />
      <path
         d="m 146.9473,93.2894 h -0.2419"
         id="path112" />
      <path
         d="M 146.7054,93.2894 146.5845,93.229"
         id="path113" />
      <path
         d="m 146.5845,93.229 -0.121,-0.121"
         id="path114" />
      <path
         d="m 146.4635,93.108 -0.0604,-0.2419"
         id="path115" />
      <path
         d="M 146.4031,92.8661 V 92.4428"
         id="path116" />
      <path
         d="m 146.4031,92.4428 0.0604,-0.2419"
         id="path117" />
      <path
         d="m 146.4635,92.2009 0.121,-0.121"
         id="path118" />
      <path
         d="m 146.5845,92.0799 0.1209,-0.0605"
         id="path119" />
      <path
         d="M 147.794,93.2894 V 92.4428"
         id="path120" />
      <path
         d="m 147.794,92.5637 0.0605,-0.0605"
         id="path121" />
      <path
         d="m 147.8545,92.5032 0.121,-0.0604"
         id="path122" />
      <path
         d="m 147.9755,92.4428 h 0.1814"
         id="path123" />
      <path
         d="m 148.1569,92.4428 0.1209,0.0604"
         id="path124" />
      <path
         d="m 148.2778,92.5032 0.0605,0.121"
         id="path125" />
      <path
         d="m 148.3383,92.6242 v 0.6652"
         id="path126" />
      <path
         d="m 148.3383,92.6242 0.0605,-0.121"
         id="path127" />
      <path
         d="m 148.3988,92.5032 0.1209,-0.0604"
         id="path128" />
      <path
         d="m 148.5197,92.4428 h 0.1815"
         id="path129" />
      <path
         d="m 148.7012,92.4428 0.1209,0.0604"
         id="path130" />
      <path
         d="m 148.8221,92.5032 0.0605,0.121"
         id="path131" />
      <path
         d="m 148.8826,92.6242 v 0.6652"
         id="path132" />
      <path
         d="m 149.9711,93.229 -0.1209,0.0604"
         id="path133" />
      <path
         d="m 149.8502,93.2894 h -0.2419"
         id="path134" />
      <path
         d="m 149.6083,93.2894 -0.121,-0.0604"
         id="path135" />
      <path
         d="m 149.4873,93.229 -0.0604,-0.121"
         id="path136" />
      <path
         d="M 149.4269,93.108 V 92.6242"
         id="path137" />
      <path
         d="m 149.4269,92.6242 0.0604,-0.121"
         id="path138" />
      <path
         d="m 149.4873,92.5032 0.121,-0.0604"
         id="path139" />
      <path
         d="m 149.6083,92.4428 h 0.2419"
         id="path140" />
      <path
         d="m 149.8502,92.4428 0.1209,0.0604"
         id="path141" />
      <path
         d="m 149.9711,92.5032 0.0605,0.121"
         id="path142" />
      <path
         d="m 150.0316,92.6242 v 0.1209"
         id="path143" />
      <path
         d="m 150.0316,92.7451 -0.6047,0.121"
         id="path144" />
      <path
         d="m 151.1202,92.4428 v 1.0281"
         id="path145" />
      <path
         d="m 151.1202,93.4709 -0.0605,0.1209"
         id="path146" />
      <path
         d="m 151.0597,93.5918 -0.0604,0.0605"
         id="path147" />
      <path
         d="m 150.9993,93.6523 -0.121,0.0605"
         id="path148" />
      <path
         d="m 150.8783,93.7128 h -0.1814"
         id="path149" />
      <path
         d="m 150.6969,93.7128 -0.121,-0.0605"
         id="path150" />
      <path
         d="m 151.1202,93.229 -0.1209,0.0604"
         id="path151" />
      <path
         d="m 150.9993,93.2894 h -0.2419"
         id="path152" />
      <path
         d="m 150.7574,93.2894 -0.121,-0.0604"
         id="path153" />
      <path
         d="m 150.6364,93.229 -0.0605,-0.0605"
         id="path154" />
      <path
         d="m 150.5759,93.1685 -0.0604,-0.121"
         id="path155" />
      <path
         d="M 150.5155,93.0475 V 92.6847"
         id="path156" />
      <path
         d="m 150.5155,92.6847 0.0604,-0.121"
         id="path157" />
      <path
         d="m 150.5759,92.5637 0.0605,-0.0605"
         id="path158" />
      <path
         d="m 150.6364,92.5032 0.121,-0.0604"
         id="path159" />
      <path
         d="m 150.7574,92.4428 h 0.2419"
         id="path160" />
      <path
         d="m 150.9993,92.4428 0.1209,0.0604"
         id="path161" />
      <path
         d="M 152.2692,93.2894 V 92.6242"
         id="path162" />
      <path
         d="m 152.2692,92.6242 -0.0605,-0.121"
         id="path163" />
      <path
         d="m 152.2087,92.5032 -0.1209,-0.0604"
         id="path164" />
      <path
         d="m 152.0878,92.4428 h -0.2419"
         id="path165" />
      <path
         d="m 151.8459,92.4428 -0.121,0.0604"
         id="path166" />
      <path
         d="m 152.2692,93.229 -0.1209,0.0604"
         id="path167" />
      <path
         d="m 152.1483,93.2894 h -0.3024"
         id="path168" />
      <path
         d="m 151.8459,93.2894 -0.121,-0.0604"
         id="path169" />
      <path
         d="m 151.7249,93.229 -0.0604,-0.121"
         id="path170" />
      <path
         d="M 151.6645,93.108 V 92.987"
         id="path171" />
      <path
         d="m 151.6645,92.987 0.0604,-0.1209"
         id="path172" />
      <path
         d="m 151.7249,92.8661 0.121,-0.0605"
         id="path173" />
      <path
         d="m 151.8459,92.8056 h 0.3024"
         id="path174" />
      <path
         d="m 152.1483,92.8056 0.1209,-0.0605"
         id="path175" />
      <path
         d="m 154.3858,92.4428 v 0.8466"
         id="path176" />
      <path
         d="m 154.0834,91.959 -0.3023,0.9071"
         id="path177" />
      <path
         d="m 153.7811,92.8661 h 0.7861"
         id="path178" />
      <path
         d="m 155.5953,92.4428 v 0.8466"
         id="path179" />
      <path
         d="m 155.2929,91.959 -0.3023,0.9071"
         id="path180" />
      <path
         d="m 154.9906,92.8661 h 0.7861"
         id="path181" />
      <path
         d="m 156.5024,92.0194 h 0.121"
         id="path182" />
      <path
         d="m 156.6234,92.0194 0.1209,0.0605"
         id="path183" />
      <path
         d="m 156.7443,92.0799 0.0605,0.0605"
         id="path184" />
      <path
         d="m 156.8048,92.1404 0.0605,0.1209"
         id="path185" />
      <path
         d="m 156.8653,92.2613 0.0605,0.2419"
         id="path186" />
      <path
         d="m 156.9258,92.5032 v 0.3024"
         id="path187" />
      <path
         d="m 156.9258,92.8056 -0.0605,0.2419"
         id="path188" />
      <path
         d="m 156.8653,93.0475 -0.0605,0.121"
         id="path189" />
      <path
         d="m 156.8048,93.1685 -0.0605,0.0605"
         id="path190" />
      <path
         d="m 156.7443,93.229 -0.1209,0.0604"
         id="path191" />
      <path
         d="m 156.6234,93.2894 h -0.121"
         id="path192" />
      <path
         d="M 156.5024,93.2894 156.3815,93.229"
         id="path193" />
      <path
         d="M 156.3815,93.229 156.321,93.1685"
         id="path194" />
      <path
         d="m 156.321,93.1685 -0.0605,-0.121"
         id="path195" />
      <path
         d="m 156.2605,93.0475 -0.0604,-0.2419"
         id="path196" />
      <path
         d="M 156.2001,92.8056 V 92.5032"
         id="path197" />
      <path
         d="m 156.2001,92.5032 0.0604,-0.2419"
         id="path198" />
      <path
         d="m 156.2605,92.2613 0.0605,-0.1209"
         id="path199" />
      <path
         d="m 156.321,92.1404 0.0605,-0.0605"
         id="path200" />
      <path
         d="m 156.3815,92.0799 0.1209,-0.0605"
         id="path201" />
      <path
         d="m 157.3491,92.0194 h 0.7862"
         id="path202" />
      <path
         d="m 158.1353,92.0194 -0.4234,0.4838"
         id="path203" />
      <path
         d="m 157.7119,92.5032 h 0.1815"
         id="path204" />
      <path
         d="m 157.8934,92.5032 0.1209,0.0605"
         id="path205" />
      <path
         d="m 158.0143,92.5637 0.0605,0.0605"
         id="path206" />
      <path
         d="m 158.0748,92.6242 0.0605,0.1209"
         id="path207" />
      <path
         d="m 158.1353,92.7451 v 0.3024"
         id="path208" />
      <path
         d="m 158.1353,93.0475 -0.0605,0.121"
         id="path209" />
      <path
         d="m 158.0748,93.1685 -0.0605,0.0605"
         id="path210" />
      <path
         d="m 158.0143,93.229 -0.1209,0.0604"
         id="path211" />
      <path
         d="m 157.8934,93.2894 h -0.3629"
         id="path212" />
      <path
         d="M 157.5305,93.2894 157.4096,93.229"
         id="path213" />
      <path
         d="m 157.4096,93.229 -0.0605,-0.0605"
         id="path214" />
      <path
         d="m 158.5586,92.0194 h 0.7862"
         id="path215" />
      <path
         d="m 159.3448,92.0194 -0.4234,0.4838"
         id="path216" />
      <path
         d="m 158.9214,92.5032 h 0.1815"
         id="path217" />
      <path
         d="m 159.1029,92.5032 0.1209,0.0605"
         id="path218" />
      <path
         d="m 159.2238,92.5637 0.0605,0.0605"
         id="path219" />
      <path
         d="m 159.2843,92.6242 0.0605,0.1209"
         id="path220" />
      <path
         d="m 159.3448,92.7451 v 0.3024"
         id="path221" />
      <path
         d="m 159.3448,93.0475 -0.0605,0.121"
         id="path222" />
      <path
         d="m 159.2843,93.1685 -0.0605,0.0605"
         id="path223" />
      <path
         d="m 159.2238,93.229 -0.1209,0.0604"
         id="path224" />
      <path
         d="M 159.1029,93.2894 H 158.74"
         id="path225" />
      <path
         d="M 158.74,93.2894 158.6191,93.229"
         id="path226" />
      <path
         d="m 158.6191,93.229 -0.0605,-0.0605"
         id="path227" />
    </g>
    <path
       style="fill:none;stroke:#840000;stroke-width:0.1524;stroke-linecap:round;stroke-linejoin:round;stroke-opacity:1"
       d="M 120.65,90.424 V 90.17"
       id="path228" />
    <path
       style="fill:none;stroke:#840000;stroke-width:0.1524;stroke-linecap:round;stroke-linejoin:round;stroke-opacity:1"
       d="m 120.65,90.424 1.016,0.381 -1.016,0.381 -1.016,0.381 1.016,0.381"
       id="path229" />
    <path
       style="fill:none;stroke:#840000;stroke-width:0.1524;stroke-linecap:round;stroke-linejoin:round;stroke-opacity:1"
       d="m 120.65,91.948 1.016,0.381 -1.016,0.381 -1.016,0.381 1.016,0.381"
       id="path230" />
    <path
       style="fill:none;stroke:#840000;stroke-width:0.1524;stroke-linecap:round;stroke-linejoin:round;stroke-opacity:1"
       d="m 120.65,93.472 1.016,0.381 -1.016,0.381 -1.016,0.381 1.016,0.381"
       id="path231" />
    <path
       style="fill:none;stroke:#840000;stroke-width:0.1524;stroke-linecap:round;stroke-linejoin:round;stroke-opacity:1"
       d="M 120.65,94.996 V 95.25"
       id="path232" />
    <path
       style="fill:none;stroke:#840000;stroke-width:0.1524;stroke-linecap:round;stroke-linejoin:round;stroke-opacity:1"
       d="m 122.936,91.186 0.254,-1.016 -1.016,0.254 1.016,-0.254 -4.572,4.572"
       id="path233" />
  </g>
  <g
     style="fill:none;stroke:#840000;stroke-width:0.1524;stroke-linecap:round;stroke-linejoin:round;stroke-opacity:1"
     id="g235"
     transform="translate(-118.5418,-64.0033)">
    <path
       d="M 120.65,90.17 V 88.9"
       id="path234" />
    <path
       d="m 120.65,95.25 v 1.27"
       id="path235" />
  </g>
  <g
     style="fill:none;stroke:#006464;stroke-width:0.1524;stroke-linecap:round;stroke-linejoin:round;stroke-opacity:1"
     id="g287"
     transform="translate(-118.5418,-64.0033)">
    <text
       x="125.8109"
       y="92.036797"
       textLength="2.6826999"
       font-size="1.6933px"
       lengthAdjust="spacingAndGlyphs"
       text-anchor="middle"
       opacity="0"
       stroke-opacity="0"
       id="text235">R2</text>
    <g
       class="stroked-text"
       id="g256">
      <desc
         id="desc235">R2</desc>
      <path
         d="m 125.5992,91.9813 -0.4233,-0.6047"
         id="path236" />
      <path
         d="m 124.8735,91.9813 v -1.27"
         id="path237" />
      <path
         d="m 124.8735,90.7113 h 0.4838"
         id="path238" />
      <path
         d="m 125.3573,90.7113 0.121,0.0605"
         id="path239" />
      <path
         d="m 125.4783,90.7718 0.0605,0.0605"
         id="path240" />
      <path
         d="m 125.5388,90.8323 0.0604,0.1209"
         id="path241" />
      <path
         d="m 125.5992,90.9532 v 0.1815"
         id="path242" />
      <path
         d="m 125.5992,91.1347 -0.0604,0.1209"
         id="path243" />
      <path
         d="m 125.5388,91.2556 -0.0605,0.0605"
         id="path244" />
      <path
         d="m 125.4783,91.3161 -0.121,0.0605"
         id="path245" />
      <path
         d="m 125.3573,91.3766 h -0.4838"
         id="path246" />
      <path
         d="m 126.0831,90.8323 0.0604,-0.0605"
         id="path247" />
      <path
         d="m 126.1435,90.7718 0.121,-0.0605"
         id="path248" />
      <path
         d="m 126.2645,90.7113 h 0.3024"
         id="path249" />
      <path
         d="m 126.5669,90.7113 0.1209,0.0605"
         id="path250" />
      <path
         d="m 126.6878,90.7718 0.0605,0.0605"
         id="path251" />
      <path
         d="m 126.7483,90.8323 0.0605,0.1209"
         id="path252" />
      <path
         d="m 126.8088,90.9532 v 0.121"
         id="path253" />
      <path
         d="m 126.8088,91.0742 -0.0605,0.1814"
         id="path254" />
      <path
         d="m 126.7483,91.2556 -0.7257,0.7257"
         id="path255" />
      <path
         d="m 126.0226,91.9813 h 0.7862"
         id="path256" />
    </g>
    <text
       x="126.2947"
       y="94.576797"
       textLength="3.6503"
       font-size="1.6933px"
       lengthAdjust="spacingAndGlyphs"
       text-anchor="middle"
       opacity="0"
       stroke-opacity="0"
       id="text256">10k</text>
    <g
       class="stroked-text"
       id="g284">
      <desc
         id="desc256">10k</desc>
      <path
         d="m 125.5388,94.5213 h -0.7257"
         id="path257" />
      <path
         d="m 125.1759,94.5213 v -1.27"
         id="path258" />
      <path
         d="m 125.1759,93.2513 -0.1209,0.1815"
         id="path259" />
      <path
         d="m 125.055,93.4328 -0.121,0.1209"
         id="path260" />
      <path
         d="m 124.934,93.5537 -0.1209,0.0605"
         id="path261" />
      <path
         d="m 126.3249,93.2513 h 0.121"
         id="path262" />
      <path
         d="m 126.4459,93.2513 0.1209,0.0605"
         id="path263" />
      <path
         d="m 126.5668,93.3118 0.0605,0.0605"
         id="path264" />
      <path
         d="m 126.6273,93.3723 0.0605,0.1209"
         id="path265" />
      <path
         d="m 126.6878,93.4932 0.0605,0.2419"
         id="path266" />
      <path
         d="m 126.7483,93.7351 v 0.3024"
         id="path267" />
      <path
         d="m 126.7483,94.0375 -0.0605,0.2419"
         id="path268" />
      <path
         d="m 126.6878,94.2794 -0.0605,0.121"
         id="path269" />
      <path
         d="m 126.6273,94.4004 -0.0605,0.0605"
         id="path270" />
      <path
         d="m 126.5668,94.4609 -0.1209,0.0604"
         id="path271" />
      <path
         d="m 126.4459,94.5213 h -0.121"
         id="path272" />
      <path
         d="M 126.3249,94.5213 126.204,94.4609"
         id="path273" />
      <path
         d="m 126.204,94.4609 -0.0605,-0.0605"
         id="path274" />
      <path
         d="m 126.1435,94.4004 -0.0605,-0.121"
         id="path275" />
      <path
         d="m 126.083,94.2794 -0.0604,-0.2419"
         id="path276" />
      <path
         d="M 126.0226,94.0375 V 93.7351"
         id="path277" />
      <path
         d="m 126.0226,93.7351 0.0604,-0.2419"
         id="path278" />
      <path
         d="m 126.083,93.4932 0.0605,-0.1209"
         id="path279" />
      <path
         d="m 126.1435,93.3723 0.0605,-0.0605"
         id="path280" />
      <path
         d="m 126.204,93.3118 0.1209,-0.0605"
         id="path281" />
      <path
         d="m 127.2925,94.5213 v -1.27"
         id="path282" />
      <path
         d="m 127.4135,94.0375 0.3628,0.4838"
         id="path283" />
      <path
         d="m 127.7763,93.6747 -0.4838,0.4838"
         id="path284" />
    </g>
    <path
       style="fill:none;stroke:#840000;stroke-width:0.1524;stroke-linecap:round;stroke-linejoin:round;stroke-opacity:1"
       d="m 131.318,68.58 0.762,-1.27"
       id="path285" />
    <path
       style="fill:none;stroke:#840000;stroke-width:0.1524;stroke-linecap:round;stroke-linejoin:round;stroke-opacity:1"
       d="m 132.08,67.31 0.762,1.27"
       id="path286" />
    <path
       style="fill:none;stroke:#840000;stroke-width:0.1524;stroke-linecap:round;stroke-linejoin:round;stroke-opacity:1"
       d="M 132.08,69.85 V 67.31"
       id="path287" />
  </g>
  <g
     style="fill:none;stroke:#840000;stroke-width:0.1524;stroke-linecap:round;stroke-linejoin:round;stroke-opacity:1"
     id="g288"
     transform="translate(-118.5418,-64.0033)">
    <path
       d="m 132.08,69.85 v 0"
       id="path288" />
  </g>
  <g
     style="fill:none;stroke:#006464;stroke-width:0.1524;stroke-linecap:round;stroke-linejoin:round;stroke-opacity:1"
     id="g318"
     transform="translate(-118.5418,-64.0033)">
    <text
       x="132.08"
       y="65.404999"
       textLength="4.0737"
       font-size="1.6933px"
       lengthAdjust="spacingAndGlyphs"
       text-anchor="middle"
       opacity="0"
       stroke-opacity="0"
       id="text288">+9V</text>
    <g
       class="stroked-text"
       id="g313">
      <desc
         id="desc288">+9V</desc>
      <path
         d="m 130.4471,64.8657 h 0.9677"
         id="path289" />
      <path
         d="M 130.9309,65.3495 V 64.3819"
         id="path290" />
      <path
         d="m 132.08,65.3495 h 0.2419"
         id="path291" />
      <path
         d="m 132.3219,65.3495 0.121,-0.0604"
         id="path292" />
      <path
         d="m 132.4429,65.2891 0.0604,-0.0605"
         id="path293" />
      <path
         d="m 132.5033,65.2286 0.121,-0.1815"
         id="path294" />
      <path
         d="m 132.6243,65.0471 0.0605,-0.2419"
         id="path295" />
      <path
         d="M 132.6848,64.8052 V 64.3214"
         id="path296" />
      <path
         d="m 132.6848,64.3214 -0.0605,-0.1209"
         id="path297" />
      <path
         d="M 132.6243,64.2005 132.5638,64.14"
         id="path298" />
      <path
         d="m 132.5638,64.14 -0.1209,-0.0605"
         id="path299" />
      <path
         d="M 132.4429,64.0795 H 132.201"
         id="path300" />
      <path
         d="M 132.201,64.0795 132.08,64.14"
         id="path301" />
      <path
         d="m 132.08,64.14 -0.0605,0.0605"
         id="path302" />
      <path
         d="m 132.0195,64.2005 -0.0604,0.1209"
         id="path303" />
      <path
         d="m 131.9591,64.3214 v 0.3024"
         id="path304" />
      <path
         d="m 131.9591,64.6238 0.0604,0.121"
         id="path305" />
      <path
         d="m 132.0195,64.7448 0.0605,0.0604"
         id="path306" />
      <path
         d="m 132.08,64.8052 0.121,0.0605"
         id="path307" />
      <path
         d="m 132.201,64.8657 h 0.2419"
         id="path308" />
      <path
         d="m 132.4429,64.8657 0.1209,-0.0605"
         id="path309" />
      <path
         d="m 132.5638,64.8052 0.0605,-0.0604"
         id="path310" />
      <path
         d="m 132.6243,64.7448 0.0605,-0.121"
         id="path311" />
      <path
         d="m 133.0476,64.0795 0.4233,1.27"
         id="path312" />
      <path
         d="m 133.4709,65.3495 0.4234,-1.27"
         id="path313" />
    </g>
    <path
       style="fill:none;stroke:#840000;stroke-width:0.1524;stroke-linecap:round;stroke-linejoin:round;stroke-opacity:1"
       d="M 120.65,76.454 V 76.2"
       id="path314" />
    <path
       style="fill:none;stroke:#840000;stroke-width:0.1524;stroke-linecap:round;stroke-linejoin:round;stroke-opacity:1"
       d="m 120.65,76.454 1.016,0.381 -1.016,0.381 -1.016,0.381 1.016,0.381"
       id="path315" />
    <path
       style="fill:none;stroke:#840000;stroke-width:0.1524;stroke-linecap:round;stroke-linejoin:round;stroke-opacity:1"
       d="m 120.65,77.978 1.016,0.381 -1.016,0.381 -1.016,0.381 1.016,0.381"
       id="path316" />
    <path
       style="fill:none;stroke:#840000;stroke-width:0.1524;stroke-linecap:round;stroke-linejoin:round;stroke-opacity:1"
       d="m 120.65,79.502 1.016,0.381 -1.016,0.381 -1.016,0.381 1.016,0.381"
       id="path317" />
    <path
       style="fill:none;stroke:#840000;stroke-width:0.1524;stroke-linecap:round;stroke-linejoin:round;stroke-opacity:1"
       d="M 120.65,81.026 V 81.28"
       id="path318" />
  </g>
  <g
     style="fill:none;stroke:#840000;stroke-width:0.1524;stroke-linecap:round;stroke-linejoin:round;stroke-opacity:1"
     id="g320"
     transform="translate(-118.5418,-64.0033)">
    <path
       d="M 120.65,76.2 V 74.93"
       id="path319" />
    <path
       d="m 120.65,81.28 v 1.27"
       id="path320" />
  </g>
  <g
     style="fill:none;stroke:#006464;stroke-width:0.1524;stroke-linecap:round;stroke-linejoin:round;stroke-opacity:1"
     id="g357"
     transform="translate(-118.5418,-64.0033)">
    <text
       x="124.5409"
       y="78.104897"
       textLength="2.6826999"
       font-size="1.6933px"
       lengthAdjust="spacingAndGlyphs"
       text-anchor="middle"
       opacity="0"
       stroke-opacity="0"
       id="text320">R1</text>
    <g
       class="stroked-text"
       id="g336">
      <desc
         id="desc320">R1</desc>
      <path
         d="m 124.3292,78.0494 -0.4233,-0.6047"
         id="path321" />
      <path
         d="m 123.6035,78.0494 v -1.27"
         id="path322" />
      <path
         d="m 123.6035,76.7794 h 0.4838"
         id="path323" />
      <path
         d="m 124.0873,76.7794 0.121,0.0605"
         id="path324" />
      <path
         d="m 124.2083,76.8399 0.0605,0.0605"
         id="path325" />
      <path
         d="m 124.2688,76.9004 0.0604,0.1209"
         id="path326" />
      <path
         d="m 124.3292,77.0213 v 0.1815"
         id="path327" />
      <path
         d="m 124.3292,77.2028 -0.0604,0.1209"
         id="path328" />
      <path
         d="m 124.2688,77.3237 -0.0605,0.0605"
         id="path329" />
      <path
         d="m 124.2083,77.3842 -0.121,0.0605"
         id="path330" />
      <path
         d="m 124.0873,77.4447 h -0.4838"
         id="path331" />
      <path
         d="m 125.5388,78.0494 h -0.7257"
         id="path332" />
      <path
         d="m 125.1759,78.0494 v -1.27"
         id="path333" />
      <path
         d="m 125.1759,76.7794 -0.1209,0.1815"
         id="path334" />
      <path
         d="m 125.055,76.9609 -0.121,0.1209"
         id="path335" />
      <path
         d="m 124.934,77.0818 -0.1209,0.0605"
         id="path336" />
    </g>
    <text
       x="125.3271"
       y="80.644897"
       textLength="4.2550998"
       font-size="1.6933px"
       lengthAdjust="spacingAndGlyphs"
       text-anchor="middle"
       opacity="0"
       stroke-opacity="0"
       id="text336">2.7k</text>
    <g
       class="stroked-text"
       id="g356">
      <desc
         id="desc336">2.7k</desc>
      <path
         d="m 123.5431,79.4404 0.0604,-0.0605"
         id="path337" />
      <path
         d="m 123.6035,79.3799 0.121,-0.0605"
         id="path338" />
      <path
         d="m 123.7245,79.3194 h 0.3024"
         id="path339" />
      <path
         d="m 124.0269,79.3194 0.1209,0.0605"
         id="path340" />
      <path
         d="m 124.1478,79.3799 0.0605,0.0605"
         id="path341" />
      <path
         d="m 124.2083,79.4404 0.0605,0.1209"
         id="path342" />
      <path
         d="m 124.2688,79.5613 v 0.121"
         id="path343" />
      <path
         d="m 124.2688,79.6823 -0.0605,0.1814"
         id="path344" />
      <path
         d="m 124.2083,79.8637 -0.7257,0.7257"
         id="path345" />
      <path
         d="m 123.4826,80.5894 h 0.7862"
         id="path346" />
      <path
         d="m 124.813,80.4685 0.0605,0.0605"
         id="path347" />
      <path
         d="m 124.8735,80.529 -0.0605,0.0604"
         id="path348" />
      <path
         d="M 124.813,80.5894 124.7526,80.529"
         id="path349" />
      <path
         d="m 124.7526,80.529 0.0604,-0.0605"
         id="path350" />
      <path
         d="m 124.813,80.4685 v 0.1209"
         id="path351" />
      <path
         d="m 125.2969,79.3194 h 0.8466"
         id="path352" />
      <path
         d="m 126.1435,79.3194 -0.5442,1.27"
         id="path353" />
      <path
         d="m 126.6273,80.5894 v -1.27"
         id="path354" />
      <path
         d="m 126.7483,80.1056 0.3628,0.4838"
         id="path355" />
      <path
         d="m 127.1111,79.7428 -0.4838,0.4838"
         id="path356" />
    </g>
  </g>
  <g
     style="fill:none;stroke:#0f0f0f;stroke-width:0.1524;stroke-linecap:round;stroke-linejoin:round;stroke-opacity:1"
     id="g389"
     transform="translate(-118.5418,-64.0033)">
    <text
       x="125.73"
       y="86.010696"
       textLength="5.8878999"
       font-size="1.6933px"
       lengthAdjust="spacingAndGlyphs"
       text-anchor="start"
       opacity="0"
       stroke-opacity="0"
       id="text357">Vout+</text>
    <g
       class="stroked-text"
       id="g388">
      <desc
         id="desc357">Vout+</desc>
      <path
         d="m 125.9511,84.5772 0.4233,1.27"
         id="path357" />
      <path
         d="m 126.3744,85.8472 0.4234,-1.27"
         id="path358" />
      <path
         d="m 127.4026,85.8472 -0.121,-0.0604"
         id="path359" />
      <path
         d="m 127.2816,85.7868 -0.0605,-0.0605"
         id="path360" />
      <path
         d="m 127.2211,85.7263 -0.0604,-0.121"
         id="path361" />
      <path
         d="M 127.1607,85.6053 V 85.2425"
         id="path362" />
      <path
         d="m 127.1607,85.2425 0.0604,-0.121"
         id="path363" />
      <path
         d="m 127.2211,85.1215 0.0605,-0.0605"
         id="path364" />
      <path
         d="m 127.2816,85.061 0.121,-0.0604"
         id="path365" />
      <path
         d="m 127.4026,85.0006 h 0.1814"
         id="path366" />
      <path
         d="m 127.584,85.0006 0.1209,0.0604"
         id="path367" />
      <path
         d="m 127.7049,85.061 0.0605,0.0605"
         id="path368" />
      <path
         d="m 127.7654,85.1215 0.0605,0.121"
         id="path369" />
      <path
         d="m 127.8259,85.2425 v 0.3628"
         id="path370" />
      <path
         d="m 127.8259,85.6053 -0.0605,0.121"
         id="path371" />
      <path
         d="m 127.7654,85.7263 -0.0605,0.0605"
         id="path372" />
      <path
         d="m 127.7049,85.7868 -0.1209,0.0604"
         id="path373" />
      <path
         d="m 127.584,85.8472 h -0.1814"
         id="path374" />
      <path
         d="m 128.9144,85.0006 v 0.8466"
         id="path375" />
      <path
         d="m 128.3701,85.0006 v 0.6652"
         id="path376" />
      <path
         d="m 128.3701,85.6658 0.0605,0.121"
         id="path377" />
      <path
         d="m 128.4306,85.7868 0.121,0.0604"
         id="path378" />
      <path
         d="m 128.5516,85.8472 h 0.1814"
         id="path379" />
      <path
         d="m 128.733,85.8472 0.1209,-0.0604"
         id="path380" />
      <path
         d="m 128.8539,85.7868 0.0605,-0.0605"
         id="path381" />
      <path
         d="m 129.3377,85.0006 h 0.4838"
         id="path382" />
      <path
         d="m 129.5191,84.5772 v 1.0886"
         id="path383" />
      <path
         d="m 129.5191,85.6658 0.0605,0.121"
         id="path384" />
      <path
         d="m 129.5796,85.7868 0.121,0.0604"
         id="path385" />
      <path
         d="m 129.7006,85.8472 h 0.1209"
         id="path386" />
      <path
         d="m 130.2448,85.3634 h 0.9677"
         id="path387" />
      <path
         d="M 130.7286,85.8472 V 84.8796"
         id="path388" />
    </g>
  </g>
  <g
     style="fill:none;stroke:#0f0f0f;stroke-width:0.1524;stroke-linecap:round;stroke-linejoin:round;stroke-opacity:1"
     id="g420"
     transform="translate(-118.5418,-64.0033)">
    <text
       x="137.16"
       y="86.010696"
       textLength="5.8878999"
       font-size="1.6933px"
       lengthAdjust="spacingAndGlyphs"
       text-anchor="start"
       opacity="0"
       stroke-opacity="0"
       id="text389">Vout-</text>
    <g
       class="stroked-text"
       id="g419">
      <desc
         id="desc389">Vout-</desc>
      <path
         d="m 137.3811,84.5772 0.4233,1.27"
         id="path389" />
      <path
         d="m 137.8044,85.8472 0.4234,-1.27"
         id="path390" />
      <path
         d="m 138.8326,85.8472 -0.121,-0.0604"
         id="path391" />
      <path
         d="m 138.7116,85.7868 -0.0605,-0.0605"
         id="path392" />
      <path
         d="m 138.6511,85.7263 -0.0604,-0.121"
         id="path393" />
      <path
         d="M 138.5907,85.6053 V 85.2425"
         id="path394" />
      <path
         d="m 138.5907,85.2425 0.0604,-0.121"
         id="path395" />
      <path
         d="m 138.6511,85.1215 0.0605,-0.0605"
         id="path396" />
      <path
         d="m 138.7116,85.061 0.121,-0.0604"
         id="path397" />
      <path
         d="m 138.8326,85.0006 h 0.1814"
         id="path398" />
      <path
         d="m 139.014,85.0006 0.1209,0.0604"
         id="path399" />
      <path
         d="m 139.1349,85.061 0.0605,0.0605"
         id="path400" />
      <path
         d="m 139.1954,85.1215 0.0605,0.121"
         id="path401" />
      <path
         d="m 139.2559,85.2425 v 0.3628"
         id="path402" />
      <path
         d="m 139.2559,85.6053 -0.0605,0.121"
         id="path403" />
      <path
         d="m 139.1954,85.7263 -0.0605,0.0605"
         id="path404" />
      <path
         d="m 139.1349,85.7868 -0.1209,0.0604"
         id="path405" />
      <path
         d="m 139.014,85.8472 h -0.1814"
         id="path406" />
      <path
         d="m 140.3444,85.0006 v 0.8466"
         id="path407" />
      <path
         d="m 139.8001,85.0006 v 0.6652"
         id="path408" />
      <path
         d="m 139.8001,85.6658 0.0605,0.121"
         id="path409" />
      <path
         d="m 139.8606,85.7868 0.121,0.0604"
         id="path410" />
      <path
         d="m 139.9816,85.8472 h 0.1814"
         id="path411" />
      <path
         d="m 140.163,85.8472 0.1209,-0.0604"
         id="path412" />
      <path
         d="m 140.2839,85.7868 0.0605,-0.0605"
         id="path413" />
      <path
         d="m 140.7677,85.0006 h 0.4838"
         id="path414" />
      <path
         d="m 140.9491,84.5772 v 1.0886"
         id="path415" />
      <path
         d="m 140.9491,85.6658 0.0605,0.121"
         id="path416" />
      <path
         d="m 141.0096,85.7868 0.121,0.0604"
         id="path417" />
      <path
         d="m 141.1306,85.8472 h 0.1209"
         id="path418" />
      <path
         d="m 141.6748,85.3634 h 0.9677"
         id="path419" />
    </g>
  </g>
  <g
     style="fill:none;stroke:#009600;stroke-width:0.1524;stroke-linecap:round;stroke-linejoin:round;stroke-opacity:1"
     id="g432"
     transform="translate(-118.5418,-64.0033)">
    <path
       d="m 120.65,86.36 h 5.08"
       id="path420" />
    <path
       d="m 120.65,96.52 h 11.43"
       id="path421" />
    <path
       d="M 120.65,86.36 V 88.9"
       id="path422" />
    <path
       d="m 132.08,96.52 v 6.35"
       id="path423" />
    <path
       d="M 132.08,74.93 V 69.85"
       id="path424" />
    <path
       d="m 132.08,96.52 h 11.43"
       id="path425" />
    <path
       d="m 137.16,86.36 h 6.35"
       id="path426" />
    <path
       d="m 143.51,86.36 v 1.27"
       id="path427" />
    <path
       d="M 143.51,96.52 V 95.25"
       id="path428" />
    <path
       d="m 120.65,82.55 v 3.81"
       id="path429" />
    <path
       d="m 132.08,74.93 h 11.43"
       id="path430" />
    <path
       d="m 143.51,82.55 v 3.81"
       id="path431" />
    <path
       d="m 120.65,74.93 h 11.43"
       id="path432" />
  </g>
  <g
     style="fill:#009600;fill-opacity:1;stroke:#009600;stroke-width:0.1524;stroke-linecap:round;stroke-linejoin:round;stroke-opacity:1"
     id="g435"
     transform="translate(-118.5418,-64.0033)">
    <circle
       cx="132.08"
       cy="74.93"
       r="0.45719999"
       id="circle432" />
    <circle
       cx="120.65"
       cy="86.360001"
       r="0.45719999"
       id="circle433" />
    <circle
       cx="132.08"
       cy="96.519997"
       r="0.45719999"
       id="circle434" />
    <circle
       cx="143.50999"
       cy="86.360001"
       r="0.45719999"
       id="circle435" />
  </g>
</svg>
